<svg width="167" height="40" viewBox="0 0 167 40" fill="none" xmlns="http://www.w3.org/2000/svg">
<g clip-path="url(#clip0_4375_6738)">
<rect width="167" height="40" fill="black"/>
<g filter="url(#filter0_d_4375_6738)">
<path d="M17.2417 28.0933H14.46V7.56757H17.2417V16.3968H27.4036V7.56757H30.1853V28.0933H27.4036V18.9802H17.2417V28.0933ZM41.8142 14.2108H44.454V28.0933H42.0696L41.7858 25.9925C40.991 27.4404 39.146 28.434 37.1022 28.434C33.8663 28.434 32.0497 26.248 32.0497 22.8412V14.2108H34.7179V21.9612C34.7179 24.9421 35.9952 26.0777 38.0389 26.0777C40.4801 26.0777 41.8142 24.5162 41.8142 21.5353V14.2108ZM48.7226 28.0933H46.0544V14.2108H48.4388L48.6942 16.0277C49.4039 14.7218 50.8799 13.8133 52.8385 13.8133C54.9957 13.8133 56.5285 14.8921 57.2382 16.6239C57.8911 14.8921 59.5658 13.8133 61.7231 13.8133C64.9023 13.8133 66.8324 15.8006 66.8324 19.0086V28.0933H64.221V19.6616C64.221 17.4756 63.0004 16.2264 61.127 16.2264C59.1117 16.2264 57.7776 17.6459 57.7776 19.8603V28.0933H55.1377V19.6332C55.1377 17.4472 53.9455 16.2548 52.0721 16.2548C50.0567 16.2548 48.7226 17.6459 48.7226 19.8603V28.0933ZM72.3193 28.434C69.3388 28.434 67.579 26.759 67.579 24.2323C67.579 21.6773 69.4808 20.0874 72.7451 19.8319L77.1164 19.4913V19.0938C77.1164 16.7658 75.7255 15.9425 73.8521 15.9425C71.6097 15.9425 70.3323 16.9362 70.3323 18.6112H68.0047C68.0047 15.7154 70.3891 13.8133 73.9656 13.8133C77.4002 13.8133 79.7278 15.6303 79.7278 19.3777V28.0933H77.457L77.1732 25.8506C76.4635 27.4404 74.5617 28.434 72.3193 28.434ZM73.0857 26.3616C75.612 26.3616 77.1448 24.715 77.1448 22.1031V21.365L73.5966 21.6489C71.2407 21.876 70.2756 22.7845 70.2756 24.1472C70.2756 25.6234 71.3542 26.3616 73.0857 26.3616ZM83.8205 28.0933H81.1523V14.2108H83.565L83.8489 16.34C84.7288 14.7502 86.4887 13.8133 88.4473 13.8133C92.1089 13.8133 93.7837 16.0561 93.7837 19.6048V28.0933H91.1155V20.201C91.1155 17.3904 89.8097 16.2548 87.766 16.2548C85.2681 16.2548 83.8205 18.0434 83.8205 20.7404V28.0933ZM98.4445 7.56757V25.5099H107.471V28.0933H95.6628V7.56757H98.4445ZM111.827 28.434C108.846 28.434 107.086 26.759 107.086 24.2323C107.086 21.6773 108.988 20.0874 112.252 19.8319L116.624 19.4913V19.0938C116.624 16.7658 115.233 15.9425 113.359 15.9425C111.117 15.9425 109.84 16.9362 109.84 18.6112H107.512C107.512 15.7154 109.896 13.8133 113.473 13.8133C116.908 13.8133 119.235 15.6303 119.235 19.3777V28.0933H116.964L116.681 25.8506C115.971 27.4404 114.069 28.434 111.827 28.434ZM112.593 26.3616C115.119 26.3616 116.652 24.715 116.652 22.1031V21.365L113.104 21.6489C110.748 21.876 109.783 22.7845 109.783 24.1472C109.783 25.6234 110.862 26.3616 112.593 26.3616ZM118.993 34.3107V32.1247H120.781C122.059 32.1247 123.08 31.926 123.733 30.1658L124.216 28.8315L118.624 14.2108H121.434L125.465 25.3963L129.581 14.2108H132.334L125.777 31.2162C124.84 33.601 123.449 34.5946 121.321 34.5946C120.441 34.5946 119.703 34.481 118.993 34.3107ZM137.656 28.434C133.568 28.434 130.758 25.4815 130.758 21.1662C130.758 16.8226 133.512 13.8133 137.542 13.8133C141.488 13.8133 144.071 16.5387 144.071 20.6552V21.6489L133.341 21.6773C133.54 24.6014 135.073 26.2196 137.713 26.2196C139.785 26.2196 141.147 25.3679 141.601 23.7781H144.099C143.418 26.759 141.09 28.434 137.656 28.434ZM137.542 16.0561C135.215 16.0561 133.739 17.4472 133.398 19.8887H141.403C141.403 17.5891 139.898 16.0561 137.542 16.0561ZM152.728 14.0972V16.5387H151.536C149.01 16.5387 147.449 18.0718 147.449 20.7404V28.0933H144.78V14.2392H147.278L147.449 16.34C148.016 14.8921 149.407 13.9269 151.309 13.9269C151.792 13.9269 152.189 13.9836 152.728 14.0972Z" fill="white"/>
</g>
</g>
<defs>
<filter id="filter0_d_4375_6738" x="7.45716" y="0.564764" width="152.274" height="41.0326" filterUnits="userSpaceOnUse" color-interpolation-filters="sRGB">
<feFlood flood-opacity="0" result="BackgroundImageFix"/>
<feColorMatrix in="SourceAlpha" type="matrix" values="0 0 0 0 0 0 0 0 0 0 0 0 0 0 0 0 0 0 127 0" result="hardAlpha"/>
<feOffset/>
<feGaussianBlur stdDeviation="3.5014"/>
<feComposite in2="hardAlpha" operator="out"/>
<feColorMatrix type="matrix" values="0 0 0 0 0 0 0 0 0 0 0 0 0 0 0 0 0 0 0.16 0"/>
<feBlend mode="normal" in2="BackgroundImageFix" result="effect1_dropShadow_4375_6738"/>
<feBlend mode="normal" in="SourceGraphic" in2="effect1_dropShadow_4375_6738" result="shape"/>
</filter>
<clipPath id="clip0_4375_6738">
<rect width="167" height="40" fill="white"/>
</clipPath>
</defs>
</svg>
