<svg width="190" height="40" viewBox="0 0 190 40" fill="none" xmlns="http://www.w3.org/2000/svg">
<path d="M20 31C26.0748 31 31 26.0748 31 20C31 13.9253 26.0748 9 20 9C13.9253 9 9 13.9253 9 20C9 26.0748 13.9253 31 20 31Z" fill="#006FFB"/>
<path fill-rule="evenodd" clip-rule="evenodd" d="M19.3044 16.6937C19.3914 16.1033 19.5812 15.3462 19.8764 14.4203L20.001 14.0381L20.1257 14.4203C20.4209 15.3462 20.6115 16.1033 20.6977 16.6937C20.7628 17.1263 20.7628 17.6763 20.6977 18.3437C20.6317 19.0138 20.6317 19.5683 20.6977 20.0065C20.7949 20.6482 21.0882 21.1808 21.5777 21.6052C22.0542 22.0297 22.672 22.2612 23.3102 22.2542C23.657 22.2595 24.0013 22.1939 24.3219 22.0615C24.6425 21.9291 24.9327 21.7327 25.1747 21.4842C25.688 20.9718 25.9465 20.353 25.952 19.6288C25.9548 18.9872 26.0208 18.2795 26.15 17.5058C26.2133 17.119 26.2784 16.7954 26.3425 16.5342L26.4296 16.1822L26.5836 16.5085C27.0256 17.4386 27.2632 18.4526 27.2803 19.4822V19.6288C27.2832 20.6017 27.0886 21.565 26.7083 22.4604C25.9698 24.2073 24.5795 25.5976 22.8326 26.3361C21.9371 26.7161 20.9738 26.9104 20.001 26.9072C19.0282 26.9104 18.0649 26.7161 17.1694 26.3361C15.4226 25.5976 14.0323 24.2073 13.2938 22.4604C12.9136 21.5647 12.7193 20.601 12.7227 19.6279V19.4822C12.7395 18.4526 12.9768 17.4386 13.4184 16.5085L13.5734 16.1822L13.6586 16.5351C13.7246 16.7954 13.7897 17.119 13.852 17.5058C13.9813 18.2795 14.0473 18.9872 14.05 19.6288C14.0555 20.353 14.3159 20.9718 14.8274 21.4842C15.3434 21.9975 15.9649 22.2542 16.6928 22.2542C17.3482 22.2542 17.9257 22.0378 18.4244 21.6052C18.9043 21.1986 19.2176 20.6295 19.3044 20.0065C19.3713 19.5683 19.3713 19.0138 19.3044 18.3437C19.2393 17.6763 19.2393 17.1263 19.3044 16.6937ZM20.001 25.5798C21.0066 25.5798 21.9489 25.3415 22.8289 24.8667C23.4417 24.539 23.9911 24.1047 24.4514 23.5843C24.5092 23.5201 24.4423 23.4211 24.3589 23.444C24.0197 23.5357 23.6714 23.5815 23.3102 23.5815C22.6074 23.5854 21.9168 23.3985 21.3119 23.0407C20.8223 22.7581 20.4 22.3724 20.0744 21.9104C20.0659 21.8989 20.0549 21.8895 20.0422 21.883C20.0294 21.8765 20.0153 21.8731 20.001 21.8731C19.9867 21.8731 19.9726 21.8765 19.9599 21.883C19.9472 21.8895 19.9361 21.8989 19.9277 21.9104C19.6019 22.3721 19.1797 22.7574 18.6902 23.0398C18.0854 23.3979 17.3947 23.5851 16.6919 23.5815C16.3316 23.5815 15.9824 23.5357 15.6441 23.444C15.5607 23.4211 15.4929 23.5201 15.5506 23.5843C16.011 24.1047 16.5604 24.539 17.1731 24.8667C18.0531 25.3415 18.9954 25.5798 20.001 25.5798Z" fill="white"/>
<path fill-rule="evenodd" clip-rule="evenodd" d="M40 30.569L46.27 9H52.227L58.465 30.569H54.985L53.543 25.485H44.953L43.511 30.569H40ZM45.8 22.403H52.697L49.499 11.064H48.997L45.8 22.404V22.403ZM61.532 30.569V15.379H64.762V30.569H61.532ZM63.162 13.314C62.535 13.314 62.002 13.119 61.564 12.728C61.146 12.318 60.937 11.794 60.937 11.157C60.937 10.52 61.146 10.007 61.564 9.617C62.003 9.205 62.535 9 63.163 9C63.81 9 64.343 9.205 64.761 9.616C65.179 10.006 65.388 10.52 65.388 11.156C65.388 11.794 65.179 12.317 64.761 12.728C64.343 13.118 63.81 13.314 63.162 13.314ZM69.46 30.569V9H72.845V18.244H82.062V9H85.448V30.569H82.062V21.263H72.845V30.569H69.46ZM96.052 30.846C94.882 30.846 93.837 30.589 92.917 30.076C92.0024 29.5674 91.252 28.8084 90.754 27.888C90.231 26.943 89.97 25.813 89.97 24.498V15.378H93.2V24.283C93.2 25.597 93.533 26.573 94.202 27.21C94.872 27.826 95.802 28.134 96.992 28.134C98.309 28.134 99.365 27.703 100.159 26.84C100.974 25.957 101.382 24.694 101.382 23.05V15.378H104.611V30.568H101.444V28.288H100.942C100.65 28.904 100.127 29.49 99.375 30.045C98.623 30.579 97.515 30.845 96.052 30.845V30.846ZM118.319 31C116.814 31 115.654 30.733 114.839 30.199C114.045 29.665 113.449 29.069 113.052 28.412H112.55V30.569H109.384V9H112.614V17.443H113.114C113.365 17.032 113.7 16.641 114.118 16.272C114.536 15.882 115.09 15.563 115.779 15.317C116.469 15.07 117.315 14.947 118.319 14.947C119.615 14.947 120.806 15.255 121.893 15.871C122.979 16.487 123.847 17.381 124.495 18.551C125.142 19.723 125.466 21.12 125.466 22.742V23.204C125.466 24.848 125.132 26.254 124.463 27.426C123.815 28.576 122.948 29.459 121.861 30.076C120.795 30.692 119.615 31 118.319 31ZM117.379 28.227C118.779 28.227 119.928 27.785 120.827 26.902C121.747 26.019 122.207 24.755 122.207 23.112V22.835C122.207 21.212 121.757 19.959 120.858 19.075C119.959 18.192 118.799 17.751 117.378 17.751C115.998 17.751 114.849 18.192 113.93 19.076C113.03 19.959 112.581 21.212 112.581 22.835V23.112C112.581 24.755 113.031 26.019 113.93 26.902C114.85 27.785 116 28.227 117.379 28.227ZM129.374 30.569V9H135.738L140.534 28.35H141.036L145.832 9H152.196V30.569H148.904V11.342H148.403L143.638 30.569H137.932L133.167 11.342H132.665V30.569H129.374ZM156.868 30.569V15.379H160.097V30.569H156.868ZM158.498 13.314C157.871 13.314 157.338 13.119 156.899 12.728C156.481 12.318 156.272 11.794 156.272 11.157C156.272 10.52 156.481 10.007 156.899 9.617C157.338 9.205 157.871 9 158.498 9C159.146 9 159.679 9.205 160.097 9.616C160.515 10.006 160.724 10.52 160.724 11.156C160.724 11.794 160.515 12.317 160.097 12.728C159.679 13.118 159.146 13.314 158.498 13.314ZM163.573 30.568L169.467 22.896L163.698 15.378H167.491L171.535 20.832H172.037L176.081 15.378H179.906L174.106 22.896L180 30.568H176.144L172.037 24.991H171.535L167.429 30.568H163.573Z" fill="black"/>
</svg>
