<svg width="180" height="180" viewBox="0 0 180 180" fill="none" xmlns="http://www.w3.org/2000/svg">
<g clip-path="url(#clip0_4255_5623)">
<rect x="57.75" y="28.875" width="62.25" height="54.75" rx="8.00958" stroke="#4C19E8" stroke-width="5.25"/>
<path d="M47.625 52.5L47.625 60" stroke="#4C19E8" stroke-width="5.25" stroke-linecap="round"/>
<path d="M130.125 52.5L130.125 60" stroke="#4C19E8" stroke-width="5.25" stroke-linecap="round"/>
<path d="M73.875 30L81.2255 44.7009C81.3171 44.8842 81.5044 45 81.7094 45H96.0406C96.2456 45 96.4329 44.8842 96.5245 44.7009L103.875 30" stroke="#4C19E8" stroke-width="3.75" stroke-linecap="round"/>
<path d="M88.875 26.25V15" stroke="#4C19E8" stroke-width="4.12499" stroke-linecap="round"/>
<circle cx="88.875" cy="11.25" r="7.5" fill="#4C19E8"/>
<circle cx="77.625" cy="60" r="3.75" fill="#4C19E8"/>
<circle cx="100.125" cy="60" r="3.75" fill="#4C19E8"/>
<rect x="13.875" y="118.875" width="62.25" height="54.75" rx="8.00958" stroke="#4C19E8" stroke-width="5.25"/>
<path d="M3.75 142.5L3.75 150" stroke="#4C19E8" stroke-width="5.25" stroke-linecap="round"/>
<path d="M86.25 142.5L86.25 150" stroke="#4C19E8" stroke-width="5.25" stroke-linecap="round"/>
<path d="M30 120L37.3505 134.701C37.4421 134.884 37.6294 135 37.8344 135H52.1656C52.3706 135 52.5579 134.884 52.6495 134.701L60 120" stroke="#4C19E8" stroke-width="3.75" stroke-linecap="round"/>
<path d="M45 116.25V105" stroke="#4C19E8" stroke-width="4.12499" stroke-linecap="round"/>
<circle cx="45" cy="101.25" r="7.5" fill="#4C19E8"/>
<circle cx="33.75" cy="150" r="3.75" fill="#4C19E8"/>
<circle cx="56.25" cy="150" r="3.75" fill="#4C19E8"/>
<rect x="103.875" y="118.875" width="62.25" height="54.75" rx="8.00958" stroke="#4C19E8" stroke-width="5.25"/>
<path d="M93.75 142.5L93.75 150" stroke="#4C19E8" stroke-width="5.25" stroke-linecap="round"/>
<path d="M176.25 142.5L176.25 150" stroke="#4C19E8" stroke-width="5.25" stroke-linecap="round"/>
<path d="M120 120L127.35 134.701C127.442 134.884 127.629 135 127.834 135H142.166C142.371 135 142.558 134.884 142.65 134.701L150 120" stroke="#4C19E8" stroke-width="3.75" stroke-linecap="round"/>
<path d="M135 116.25V105" stroke="#4C19E8" stroke-width="4.12499" stroke-linecap="round"/>
<circle cx="135" cy="101.25" r="7.5" fill="#4C19E8"/>
<circle cx="123.75" cy="150" r="3.75" fill="#4C19E8"/>
<circle cx="146.25" cy="150" r="3.75" fill="#4C19E8"/>
</g>
<defs>
<clipPath id="clip0_4255_5623">
<rect width="180" height="180" fill="white"/>
</clipPath>
</defs>
</svg>
