<svg width="24" height="24" viewBox="0 0 24 24" fill="none" xmlns="http://www.w3.org/2000/svg">
<path d="M19.2192 5.66688C17.8728 5.07504 16.433 4.6449 14.928 4.39999C14.7431 4.71397 14.5272 5.13627 14.3783 5.47222C12.7783 5.24616 11.193 5.24616 9.62245 5.47222C9.47364 5.13627 9.25269 4.71397 9.06624 4.39999C7.55947 4.6449 6.11819 5.07661 4.77178 5.67002C2.05604 9.52559 1.31984 13.2855 1.68794 16.9919C3.48916 18.2557 5.23476 19.0233 6.95088 19.5257C7.37464 18.9779 7.75253 18.3955 8.07815 17.7816C7.45803 17.5603 6.86419 17.2871 6.30306 16.9699C6.45197 16.8664 6.59757 16.758 6.73825 16.6466C10.1608 18.1505 13.8793 18.1505 17.261 16.6466C17.4033 16.758 17.5489 16.8664 17.6961 16.9699C17.1333 17.2886 16.5378 17.5618 15.9178 17.7832C16.2433 18.3955 16.6196 18.9794 17.0449 19.5273C18.7627 19.0249 20.5099 18.2572 22.3112 16.9919C22.7431 12.6952 21.5734 8.96985 19.2192 5.66688ZM8.54435 14.7125C7.51693 14.7125 6.67443 13.8113 6.67443 12.714C6.67443 11.6167 7.49896 10.714 8.54435 10.714C9.58974 10.714 10.4322 11.6151 10.4143 12.714C10.416 13.8113 9.58974 14.7125 8.54435 14.7125ZM15.4548 14.7125C14.4273 14.7125 13.5849 13.8113 13.5849 12.714C13.5849 11.6167 14.4094 10.714 15.4548 10.714C16.5002 10.714 17.3428 11.6151 17.3247 12.714C17.3247 13.8113 16.5002 14.7125 15.4548 14.7125Z" fill="#5865F2"/>
</svg>
