<svg width="24" height="24" viewBox="0 0 24 24" fill="none" xmlns="http://www.w3.org/2000/svg">
<path d="M17.5645 7.0183C16.5215 6.54125 15.4137 6.19357 14.2575 5.99951C14.1119 6.25017 13.9502 6.58976 13.837 6.85659C12.6072 6.6787 11.3862 6.6787 10.1734 6.85659C10.0602 6.58976 9.89036 6.25017 9.7529 5.99951C8.58858 6.19357 7.48084 6.54125 6.44507 7.0183C4.35088 10.107 3.78488 13.123 4.06788 16.0985C5.45862 17.1092 6.80085 17.7237 8.11963 18.128C8.44305 17.6914 8.73414 17.2224 8.9848 16.7292C8.50774 16.5513 8.05494 16.333 7.61832 16.0742C7.73152 15.9934 7.84472 15.9045 7.94983 15.8155C10.5858 17.0203 13.4408 17.0203 16.0444 15.8155C16.1576 15.9045 16.2627 15.9934 16.3759 16.0742C15.9393 16.333 15.4865 16.5513 15.0094 16.7292C15.2601 17.2224 15.5512 17.6914 15.8746 18.128C17.1925 17.7237 18.5429 17.1092 19.9263 16.0985C20.274 12.654 19.3757 9.66234 17.5645 7.0183ZM9.34865 14.2631C8.55624 14.2631 7.90939 13.5434 7.90939 12.6621C7.90939 11.7808 8.54007 11.0611 9.34865 11.0611C10.1491 11.0611 10.804 11.7808 10.7879 12.6621C10.7879 13.5434 10.1491 14.2631 9.34865 14.2631ZM14.6618 14.2631C13.8693 14.2631 13.2217 13.5434 13.2217 12.6621C13.2217 11.7808 13.8532 11.0611 14.6618 11.0611C15.4622 11.0611 16.1172 11.7808 16.101 12.6621C16.101 13.5434 15.4703 14.2631 14.6618 14.2631Z" fill="white"/>
</svg>
