<svg width="180" height="180" viewBox="0 0 180 180" fill="none" xmlns="http://www.w3.org/2000/svg">
<g clip-path="url(#clip0_4255_5654)">
<path fill-rule="evenodd" clip-rule="evenodd" d="M27.9923 120.186C28.9924 119.186 30.6139 119.186 31.614 120.186L36.736 125.308C37.7361 126.308 37.7361 127.93 36.736 128.93L31.614 134.052C30.6139 135.052 28.9924 135.052 27.9923 134.052C26.9922 133.052 26.9922 131.43 27.9923 130.43L31.3033 127.119L27.9923 123.808C26.9922 122.808 26.9922 121.186 27.9923 120.186Z" fill="#4C19E8"/>
<path fill-rule="evenodd" clip-rule="evenodd" d="M37.4844 137.363C37.4844 135.949 38.631 134.802 40.0454 134.802H50.2893C51.7036 134.802 52.8502 135.949 52.8502 137.363C52.8502 138.777 51.7036 139.924 50.2893 139.924H40.0454C38.631 139.924 37.4844 138.777 37.4844 137.363Z" fill="#4C19E8"/>
<path fill-rule="evenodd" clip-rule="evenodd" d="M24.679 114.314C23.2646 114.314 22.118 115.461 22.118 116.875V152.729C22.118 154.143 23.2646 155.29 24.679 155.29H60.5327C61.9471 155.29 63.0937 154.143 63.0937 152.729V116.875C63.0937 115.461 61.9471 114.314 60.5327 114.314H24.679ZM16.9961 116.875C16.9961 112.632 20.4359 109.192 24.679 109.192H60.5327C64.7758 109.192 68.2156 112.632 68.2156 116.875V152.729C68.2156 156.972 64.7758 160.412 60.5327 160.412H24.679C20.4359 160.412 16.9961 156.972 16.9961 152.729V116.875Z" fill="#4C19E8"/>
<path fill-rule="evenodd" clip-rule="evenodd" d="M121.37 112.585C122.605 111.35 124.28 110.656 126.027 110.656H144.685C145.267 110.656 145.826 110.887 146.237 111.299L158.311 123.372C158.722 123.784 158.954 124.342 158.954 124.924V152.363C158.954 154.11 158.26 155.785 157.025 157.02C155.79 158.255 154.115 158.948 152.368 158.948H126.027C124.28 158.948 122.605 158.255 121.37 157.02C120.135 155.785 119.441 154.11 119.441 152.363V117.241C119.441 115.495 120.135 113.82 121.37 112.585ZM126.027 115.046C125.445 115.046 124.886 115.277 124.475 115.689C124.063 116.101 123.832 116.659 123.832 117.241V152.363C123.832 152.945 124.063 153.504 124.475 153.915C124.886 154.327 125.445 154.558 126.027 154.558H152.368C152.95 154.558 153.509 154.327 153.92 153.915C154.332 153.504 154.563 152.945 154.563 152.363V125.833L143.776 115.046H126.027Z" fill="#4C19E8"/>
<path fill-rule="evenodd" clip-rule="evenodd" d="M143.586 110.656C144.798 110.656 145.781 111.639 145.781 112.851V123.826H156.756C157.969 123.826 158.952 124.809 158.952 126.022C158.952 127.234 157.969 128.217 156.756 128.217H143.586C142.373 128.217 141.391 127.234 141.391 126.022V112.851C141.391 111.639 142.373 110.656 143.586 110.656Z" fill="#4C19E8"/>
<path fill-rule="evenodd" clip-rule="evenodd" d="M128.223 136.997C128.223 135.785 129.205 134.802 130.418 134.802H147.979C149.191 134.802 150.174 135.785 150.174 136.997C150.174 138.21 149.191 139.192 147.979 139.192H130.418C129.205 139.192 128.223 138.21 128.223 136.997Z" fill="#4C19E8"/>
<path fill-rule="evenodd" clip-rule="evenodd" d="M128.223 145.778C128.223 144.566 129.205 143.583 130.418 143.583H147.979C149.191 143.583 150.174 144.566 150.174 145.778C150.174 146.99 149.191 147.973 147.979 147.973H130.418C129.205 147.973 128.223 146.99 128.223 145.778Z" fill="#4C19E8"/>
<path fill-rule="evenodd" clip-rule="evenodd" d="M128.223 128.217C128.223 127.005 129.205 126.022 130.418 126.022H134.808C136.02 126.022 137.003 127.005 137.003 128.217C137.003 129.429 136.02 130.412 134.808 130.412H130.418C129.205 130.412 128.223 129.429 128.223 128.217Z" fill="#4C19E8"/>
<path fill-rule="evenodd" clip-rule="evenodd" d="M116.98 24.7792C118.215 23.5442 119.89 22.8503 121.636 22.8503H147.978C149.724 22.8503 151.399 23.5442 152.634 24.7792C153.869 26.0141 154.563 27.6892 154.563 29.4357V33.826C154.563 35.0383 153.58 36.0211 152.368 36.0211C151.156 36.0211 150.173 35.0383 150.173 33.826V29.4357C150.173 28.8535 149.941 28.2952 149.53 27.8835C149.118 27.4719 148.56 27.2406 147.978 27.2406H121.636C121.054 27.2406 120.496 27.4719 120.084 27.8835C119.672 28.2952 119.441 28.8535 119.441 29.4357V44.8016C119.441 45.3837 119.672 45.9421 120.084 46.3537C120.496 46.7654 121.054 46.9967 121.636 46.9967H139.197C140.409 46.9967 141.392 47.9795 141.392 49.1918C141.392 50.4041 140.409 51.3869 139.197 51.3869H121.636C119.89 51.3869 118.215 50.6931 116.98 49.4581C115.745 48.2231 115.051 46.5481 115.051 44.8016V29.4357C115.051 27.6892 115.745 26.0141 116.98 24.7792Z" fill="#4C19E8"/>
<path fill-rule="evenodd" clip-rule="evenodd" d="M134.808 47.0845C136.021 47.0845 137.004 48.0673 137.004 49.2796V57.9723C137.004 59.1846 136.021 60.1674 134.808 60.1674C133.596 60.1674 132.613 59.1846 132.613 57.9723V49.2796C132.613 48.0673 133.596 47.0845 134.808 47.0845Z" fill="#4C19E8"/>
<path fill-rule="evenodd" clip-rule="evenodd" d="M126.027 57.9722C126.027 56.7599 127.01 55.7771 128.222 55.7771H139.198C140.41 55.7771 141.393 56.7599 141.393 57.9722C141.393 59.1846 140.41 60.1673 139.198 60.1673H128.222C127.01 60.1673 126.027 59.1846 126.027 57.9722Z" fill="#4C19E8"/>
<path fill-rule="evenodd" clip-rule="evenodd" d="M152.367 44.8014C151.154 44.8014 150.171 45.7842 150.171 46.9965V60.1672C150.171 61.3796 151.154 62.3624 152.367 62.3624H156.757C157.969 62.3624 158.952 61.3796 158.952 60.1672V46.9965C158.952 45.7842 157.969 44.8014 156.757 44.8014H152.367ZM145.781 46.9965C145.781 43.3595 148.73 40.4111 152.367 40.4111H156.757C160.394 40.4111 163.342 43.3595 163.342 46.9965V60.1672C163.342 63.8042 160.394 66.7526 156.757 66.7526H152.367C148.73 66.7526 145.781 63.8042 145.781 60.1672V46.9965Z" fill="#4C19E8"/>
<path fill-rule="evenodd" clip-rule="evenodd" d="M38.2148 42.6063C38.2148 40.1816 40.1804 38.2161 42.6051 38.2161C45.0298 38.2161 46.9953 40.1816 46.9953 42.6063C46.9953 45.031 45.0298 46.9966 42.6051 46.9966C40.1804 46.9966 38.2148 45.031 38.2148 42.6063Z" fill="#4C19E8"/>
<path fill-rule="evenodd" clip-rule="evenodd" d="M36.3732 22.0923C41.4521 24.0143 47.1221 27.8014 52.2722 32.9288L52.279 32.9357C57.4065 38.0858 61.1936 43.7557 63.1155 48.8347C64.0755 51.3716 64.6073 53.8595 64.5365 56.1152C64.4653 58.3854 63.7721 60.5457 62.1537 62.1586C60.5409 63.777 58.3805 64.4701 56.1103 64.5414C53.8546 64.6122 51.3667 64.0804 48.8298 63.1204C43.7508 61.1985 38.0809 57.4114 32.9308 52.2839L32.9239 52.2771C27.7965 47.127 24.0094 41.457 22.0875 36.3781C21.1275 33.8412 20.5956 31.3533 20.6664 29.0975C20.7377 26.8273 21.4309 24.667 23.0493 23.0542C24.6621 21.4357 26.8225 20.7426 29.0926 20.6713C31.3484 20.6005 33.8363 21.1324 36.3732 22.0923ZM29.2304 25.0594C27.7439 25.1061 26.7723 25.5369 26.1575 26.1547L26.1499 26.1624L26.1498 26.1624C25.532 26.7772 25.1012 27.7488 25.0545 29.2353C25.0073 30.738 25.3645 32.6335 26.1936 34.8243C27.8493 39.1998 31.2391 44.3615 36.0318 49.1762C40.8466 53.9689 46.0081 57.3586 50.3836 59.0143C52.5744 59.8433 54.4699 60.2005 55.9726 60.1533C57.4591 60.1067 58.4307 59.6759 59.0455 59.058L59.0531 59.0504C59.671 58.4355 60.1018 57.464 60.1484 55.9775C60.1956 54.4748 59.8384 52.5793 59.0094 50.3884C57.3537 46.013 53.964 40.8514 49.1714 36.0367C44.3566 31.2439 39.195 27.8542 34.8194 26.1984C32.6286 25.3694 30.7331 25.0122 29.2304 25.0594Z" fill="#4C19E8"/>
<path fill-rule="evenodd" clip-rule="evenodd" d="M56.1103 20.6713C58.3805 20.7426 60.5409 21.4357 62.1537 23.0542C63.7721 24.667 64.4653 26.8273 64.5365 29.0975C64.6073 31.3533 64.0755 33.8412 63.1155 36.3781C61.1936 41.457 57.4065 47.127 52.279 52.2771L52.2722 52.2839C47.1221 57.4114 41.4521 61.1985 36.3732 63.1204C33.8363 64.0804 31.3484 64.6122 29.0926 64.5414C26.8222 64.4701 24.6617 63.7769 23.0488 62.1581C21.4307 60.5453 20.7377 58.3852 20.6664 56.1152C20.5956 53.8595 21.1275 51.3716 22.0875 48.8347C24.0094 43.7557 27.7965 38.0858 32.9239 32.9357L32.9308 32.9288C38.0809 27.8014 43.7508 24.0143 48.8298 22.0923C51.3667 21.1324 53.8546 20.6005 56.1103 20.6713ZM36.0317 36.0366C31.239 40.8514 27.8493 46.0129 26.1936 50.3884C25.3645 52.5793 25.0073 54.4748 25.0545 55.9775C25.1012 57.464 25.532 58.4355 26.1498 59.0504L26.1575 59.058C26.7723 59.6759 27.7439 60.1067 29.2304 60.1533C30.7331 60.2005 32.6286 59.8433 34.8194 59.0143C39.1949 57.3586 44.3565 53.9688 49.1712 49.1761C53.964 44.3614 57.3537 39.1998 59.0094 34.8243C59.8384 32.6335 60.1956 30.738 60.1484 29.2353C60.1018 27.7488 59.671 26.7772 59.0531 26.1624L59.0455 26.1547C58.4307 25.5369 57.4591 25.1061 55.9726 25.0594C54.4699 25.0122 52.5744 25.3694 50.3836 26.1984C46.008 27.8542 40.8465 31.2439 36.0317 36.0366Z" fill="#4C19E8"/>
<rect x="3.09747" y="3.09502" width="79.0244" height="79.0244" rx="6.58537" stroke="#4C19E8" stroke-width="4.39024"/>
<rect x="3.09747" y="95.2898" width="79.0244" height="79.0244" rx="6.58537" stroke="#4C19E8" stroke-width="4.39024"/>
<rect x="99.6834" y="95.2898" width="79.0244" height="79.0244" rx="6.58537" stroke="#4C19E8" stroke-width="4.39024"/>
<rect x="99.6834" y="3.09502" width="79.0244" height="79.0244" rx="6.58537" stroke="#4C19E8" stroke-width="4.39024"/>
</g>
<defs>
<clipPath id="clip0_4255_5654">
<rect width="180" height="180" fill="white"/>
</clipPath>
</defs>
</svg>
