<svg width="180" height="180" viewBox="0 0 180 180" fill="none" xmlns="http://www.w3.org/2000/svg">
<path fill-rule="evenodd" clip-rule="evenodd" d="M51.4342 50.658C38.6527 50.658 28.2913 61.0194 28.2913 73.8009C28.2913 86.5824 38.6527 96.9438 51.4342 96.9438C64.2157 96.9438 74.5771 86.5824 74.5771 73.8009C74.5771 61.0194 64.2157 50.658 51.4342 50.658ZM23.1484 73.8009C23.1484 58.1791 35.8124 45.5151 51.4342 45.5151C67.056 45.5151 79.7199 58.1791 79.7199 73.8009C79.7199 89.4227 67.056 102.087 51.4342 102.087C35.8124 102.087 23.1484 89.4227 23.1484 73.8009Z" fill="#2A2BD8"/>
<path fill-rule="evenodd" clip-rule="evenodd" d="M108.258 121.115C95.4769 121.115 85.1155 131.476 85.1155 144.257C85.1155 157.039 95.4769 167.4 108.258 167.4C121.04 167.4 131.401 157.039 131.401 144.257C131.401 131.476 121.04 121.115 108.258 121.115ZM79.9727 144.257C79.9727 128.636 92.6366 115.972 108.258 115.972C123.88 115.972 136.544 128.636 136.544 144.257C136.544 159.879 123.88 172.543 108.258 172.543C92.6366 172.543 79.9727 159.879 79.9727 144.257Z" fill="#2A2BD8"/>
<path fill-rule="evenodd" clip-rule="evenodd" d="M140.661 11.3145C127.879 11.3145 117.518 21.6759 117.518 34.4574C117.518 47.2389 127.879 57.6003 140.661 57.6003C153.442 57.6003 163.804 47.2389 163.804 34.4574C163.804 21.6759 153.442 11.3145 140.661 11.3145ZM112.375 34.4574C112.375 18.8356 125.039 6.17163 140.661 6.17163C156.283 6.17163 168.947 18.8356 168.947 34.4574C168.947 50.0792 156.283 62.7431 140.661 62.7431C125.039 62.7431 112.375 50.0792 112.375 34.4574Z" fill="#2A2BD8"/>
<path d="M136.073 58.8647L117.227 119.594" stroke="#2A2BD8" stroke-width="5"/>
<path d="M69.0586 94.4641L87.9055 127.97" stroke="#2A2BD8" stroke-width="5"/>
<path d="M77.1406 64.8007L118.284 44.2292" stroke="#2A2BD8" stroke-width="5"/>
<circle cx="169.712" cy="96.9437" r="10.2857" fill="#2A2BD8"/>
<circle cx="46.2857" cy="166.372" r="10.2857" fill="#2A2BD8"/>
<circle cx="10.2857" cy="135.515" r="10.2857" fill="#2A2BD8"/>
<circle cx="87.4264" cy="12.086" r="10.2857" fill="#2A2BD8"/>
<circle cx="10.2857" cy="12.087" r="10.2857" fill="#2A2BD8"/>
<path d="M131.887 132.158L163.298 102.841" stroke="#2A2BD8" stroke-width="5"/>
<path d="M97.7148 14.658L119.572 19.8008" stroke="#2A2BD8" stroke-width="4"/>
<path d="M14.6133 19.0769L33.4602 52.5825" stroke="#2A2BD8" stroke-width="5"/>
<path d="M16.7148 127.801L36.0006 95.6577" stroke="#2A2BD8" stroke-width="5"/>
<path d="M54.3984 163.569L83.7158 155.193" stroke="#2A2BD8" stroke-width="5"/>
</svg>
