<svg width="25" height="24" viewBox="0 0 25 24" fill="none" xmlns="http://www.w3.org/2000/svg">
<path d="M15.5 22V18C15.6392 16.7473 15.28 15.4901 14.5 14.5C17.5 14.5 20.5 12.5 20.5 9C20.58 7.75 20.23 6.52 19.5 5.5C19.78 4.35 19.78 3.15 19.5 2C19.5 2 18.5 2 16.5 3.5C13.86 3 11.14 3 8.50004 3.5C6.50004 2 5.50004 2 5.50004 2C5.20004 3.15 5.20004 4.35 5.50004 5.5C4.77191 6.51588 4.41851 7.75279 4.50004 9C4.50004 12.5 7.50004 14.5 10.5 14.5C10.11 14.99 9.82004 15.55 9.65004 16.15C9.48004 16.75 9.43004 17.38 9.50004 18M9.50004 18V22M9.50004 18C4.99004 20 4.5 16 2.5 16" stroke="white" stroke-width="2" stroke-linecap="round" stroke-linejoin="round"/>
</svg>
