<svg width="24" height="24" viewBox="0 0 24 24" fill="none" xmlns="http://www.w3.org/2000/svg">
<path fill-rule="evenodd" clip-rule="evenodd" d="M9.935 15.6958L9.93437 10.0366L15.3381 12.8759L9.935 15.6958ZM21.8 9.0559C21.8 9.0559 21.6044 7.668 21.005 7.05682C20.2444 6.2543 19.3919 6.25051 19.0012 6.20393C16.2025 6 12.0044 6 12.0044 6H11.9956C11.9956 6 7.7975 6 4.99875 6.20393C4.6075 6.25051 3.75563 6.2543 2.99438 7.05682C2.395 7.668 2.2 9.0559 2.2 9.0559C2.2 9.0559 2 10.6861 2 12.3157V13.844C2 15.4742 2.2 17.1038 2.2 17.1038C2.2 17.1038 2.395 18.4917 2.99438 19.1029C3.75563 19.9055 4.755 19.8803 5.2 19.964C6.8 20.1188 12 20.1667 12 20.1667C12 20.1667 16.2025 20.1604 19.0012 19.9564C19.3919 19.9092 20.2444 19.9055 21.005 19.1029C21.6044 18.4917 21.8 17.1038 21.8 17.1038C21.8 17.1038 22 15.4742 22 13.844V12.3157C22 10.6861 21.8 9.0559 21.8 9.0559Z" fill="#CE1312"/>
</svg>
